HIERARCHY
ROOT root
{
	OFFSET	0	13.1	24.9
	CHANNELS 6  Xposition Yposition Zposition Xrotation Yrotation Zrotation
	JOINT spine_1
	{
		OFFSET	0	9.99999	0
		CHANNELS 3  Xrotation Yrotation Zrotation
		JOINT spine_2
		{
			OFFSET	0	112	-10
			CHANNELS 3  Xrotation Yrotation Zrotation
			JOINT spine_3
			{
				OFFSET	0	206.5	19.3
				CHANNELS 3  Xrotation Yrotation Zrotation
				JOINT spine_4
				{
					OFFSET	0	110.4	14.6
					CHANNELS 3  Xrotation Yrotation Zrotation
					JOINT neck_1
					{
						OFFSET	0	71.8	-50.3
						CHANNELS 3  Xrotation Yrotation Zrotation
						JOINT neck_2
						{
							OFFSET	0	86.2	-25.8
							CHANNELS 3  Xrotation Yrotation Zrotation
							JOINT head_ee
							{
								OFFSET	0	179.8	-8.7
								CHANNELS 3  Xrotation Yrotation Zrotation
								End Site
								{
									OFFSET	1	0	0
								}
							}
						}
					}
					JOINT left_clavicle
					{
						OFFSET	-43.2	22.4	-70.8
						CHANNELS 3  Xrotation Yrotation Zrotation
						JOINT left_shoulder
						{
							OFFSET	-93.9	-5.79999	48.7
							CHANNELS 3  Xrotation Yrotation Zrotation
							JOINT left_elbow
							{
								OFFSET	-291.4	-30.8	15.2
								CHANNELS 3  Xrotation Yrotation Zrotation
								JOINT left_lowarm_twist
								{
									OFFSET	-110.7	-3.89999	13.6
									CHANNELS 3  Xrotation Yrotation Zrotation
									JOINT left_hand
									{
										OFFSET	-110.7	-3.89999	13.6
										CHANNELS 3  Xrotation Yrotation Zrotation
										JOINT left_ee
										{
											OFFSET	-80.8	-5.10001	12.1
											CHANNELS 3  Xrotation Yrotation Zrotation
											End Site
											{
												OFFSET	1	0	0
											}
										}
									}
								}
							}
						}
					}
					JOINT right_clavicle
					{
						OFFSET	43.2	22.4	-70.8
						CHANNELS 3  Xrotation Yrotation Zrotation
						JOINT right_shoulder
						{
							OFFSET	93.9	-5.79999	48.7
							CHANNELS 3  Xrotation Yrotation Zrotation
							JOINT right_elbow
							{
								OFFSET	291.4	-30.8	15.2
								CHANNELS 3  Xrotation Yrotation Zrotation
								JOINT right_lowarm_twist
								{
									OFFSET	110.7	-3.89999	13.6
									CHANNELS 3  Xrotation Yrotation Zrotation
									JOINT right_hand
									{
										OFFSET	110.7	-3.89999	13.6
										CHANNELS 3  Xrotation Yrotation Zrotation
										JOINT right_ee
										{
											OFFSET	80.8	-5.10001	12.1
											CHANNELS 3  Xrotation Yrotation Zrotation
											End Site
											{
												OFFSET	1	0	0
											}
										}
									}
								}
							}
						}
					}
				}
			}
		}
	}
	JOINT left_hip
	{
		OFFSET	-82.8	-127.5	0.300001
		CHANNELS 3  Xrotation Yrotation Zrotation
		JOINT left_knee
		{
			OFFSET	-28.2	-396.7	2.2
			CHANNELS 3  Xrotation Yrotation Zrotation
			JOINT left_ankle
			{
				OFFSET	-11.7	-411.3	35.4
				CHANNELS 3  Xrotation Yrotation Zrotation
				JOINT left_toes
				{
					OFFSET	0	-60	-88.6
					CHANNELS 3  Xrotation Yrotation Zrotation
					JOINT left_foot_ee
					{
						OFFSET	-22.5	-16.5	-42.2
						CHANNELS 3  Xrotation Yrotation Zrotation
						End Site
						{
							OFFSET	1	0	0
						}
					}
				}
			}
		}
	}
	JOINT right_hip
	{
		OFFSET	82.8	-127.5	0.300001
		CHANNELS 3  Xrotation Yrotation Zrotation
		JOINT right_knee
		{
			OFFSET	28.2	-396.7	2.2
			CHANNELS 3  Xrotation Yrotation Zrotation
			JOINT right_ankle
			{
				OFFSET	11.7	-411.3	35.4
				CHANNELS 3  Xrotation Yrotation Zrotation
				JOINT right_toes
				{
					OFFSET	0	-60	-88.6
					CHANNELS 3  Xrotation Yrotation Zrotation
					JOINT right_foot_ee
					{
						OFFSET	22.5	-16.5	-42.2
						CHANNELS 3  Xrotation Yrotation Zrotation
						End Site
						{
							OFFSET	1	0	0
						}
					}
				}
			}
		}
	}
}
MOTION
Frames: 5
Frame Time: 0.02
803.204733466 615.831 -1787.30708245 -3.58618884562 24.3885175895 3.5549270751 3.39724 0.0582299 -0.292113 3.39728 0.0766997 -0.287816 3.39687 0.119524 -0.272828 3.39678 0.0749363 -0.28828 -8.73196 2.55357 5.2768 -8.65479 1.10479 5.77889 -0.0 0.0 -0.0 4.13609 12.7795 8.38589 -24.9191 -38.8369 30.7369 0.886854 -23.7166 0.186219 3.74094 0.116703 -0.463494 -3.15261 -8.64491 -25.8039 -0.0 0.0 -0.0 7.38614 8.13527 -14.2677 -30.7679 18.4408 -55.7276 0.674241 18.4693 -0.109623 7.1718 -0.196922 0.894352 2.64286 -9.7642 -21.5607 0.0 0.0 0.0 16.9097 25.0443 -6.41062 -15.2581 0.321971 2.31248 29.008 -12.0421 -3.98096 3.44775 -0.0 -0.0 -0.0 0.0 -0.0 23.245 24.7257 3.27791 -53.5965 1.54961 -7.78329 39.0086 6.3085 4.86612 10.7363 -0.0 -0.0 0.0 0.0 0.0 
797.669838341 619.857 -1790.83505616 -4.75432057528 23.0131906632 4.61976476452 3.74156 -0.085517 -0.459167 3.74167 -0.056126 -0.463678 3.74207 0.0121347 -0.466905 3.74177 -0.0617556 -0.462961 -8.97561 2.07598 5.92724 -8.87655 -0.217173 6.3082 -0.0 0.0 -0.0 4.20095 13.9313 8.50921 -23.9419 -37.725 29.9563 0.885838 -23.6925 0.185811 3.60436 0.112977 -0.446445 -3.43466 -9.18486 -28.1879 -0.0 0.0 -0.0 7.57175 8.04206 -14.661 -31.6652 18.699 -55.0667 0.640767 17.6104 -0.0992567 7.98779 -0.212191 0.997467 2.85627 -9.7616 -23.054 0.0 0.0 0.0 16.783 25.305 -6.72869 -13.8495 0.318197 2.09641 29.0426 -10.1915 -3.94505 4.20542 -0.0 -0.0 -0.0 0.0 -0.0 25.3061 22.3865 0.393032 -45.1377 0.825546 -6.70203 36.782 8.08662 4.69595 8.78768 -0.0 -0.0 0.0 0.0 0.0 
795.072405121 622.414 -1794.63978721 -5.00109834114 22.6537812057 5.13206499007 3.71541 -0.126772 -0.607346 3.71561 -0.0878687 -0.614182 3.71646 0.00296955 -0.620428 3.71593 -0.0950509 -0.613111 -9.23791 2.63496 7.10358 -9.09601 0.0474295 7.58944 -0.0 0.0 -0.0 4.2655 14.2756 8.61886 -22.9773 -37.508 28.9442 0.90425 -24.1291 0.193273 2.17947 0.071676 -0.269125 -3.59078 -11.0883 -30.2745 -0.0 0.0 -0.0 7.62595 7.89502 -14.779 -32.2622 19.0 -55.302 0.615502 16.9567 -0.0917504 7.21286 -0.197725 0.899535 2.97264 -9.85453 -23.9074 0.0 0.0 0.0 16.209 25.2256 -6.89977 -13.6715 0.317342 2.06911 33.3155 -8.79832 -4.37154 6.26226 -0.0 -0.0 -0.0 0.0 -0.0 27.7403 21.3634 -0.999662 -33.8397 0.122051 -5.11712 32.6131 9.62772 4.31637 7.35397 -0.0 -0.0 0.0 0.0 0.0 
796.286208591 622.414 -1797.266828 -4.97919248043 22.0435500548 5.07445547867 3.71541 -0.126772 -0.607346 3.71561 -0.0878687 -0.614182 3.71646 0.00296955 -0.620428 3.71593 -0.0950509 -0.613111 -9.23791 2.63496 7.10358 -9.09601 0.0474295 7.58944 -0.0 0.0 -0.0 4.2655 14.2756 8.61886 -22.9773 -37.508 28.9442 0.90425 -24.1291 0.193273 2.17947 0.071676 -0.269125 -3.59078 -11.0883 -30.2745 -0.0 0.0 -0.0 7.62595 7.89502 -14.779 -32.2622 19.0 -55.302 0.615502 16.9567 -0.0917504 7.21286 -0.197725 0.899535 2.97264 -9.85453 -23.9074 0.0 0.0 0.0 16.209 25.2256 -6.89977 -13.6715 0.317342 2.06911 33.3155 -8.79832 -4.37154 6.26226 -0.0 -0.0 -0.0 0.0 -0.0 27.7403 21.3634 -0.999662 -33.8397 0.122051 -5.11712 32.6131 9.62772 4.31637 7.35397 -0.0 -0.0 0.0 0.0 0.0 
785.354128727 622.101 -1808.91786509 -5.81196213876 19.1558549389 6.02245956413 3.95701 -0.0969641 -0.89983 3.95746 -0.0395115 -0.904176 3.95783 0.0894647 -0.900607 3.9567 -0.0538862 -0.903434 -7.24117 3.22512 5.1055 -7.17081 2.32431 5.75425 -0.0 0.0 -0.0 4.84319 15.6742 9.55858 -21.4765 -37.1325 27.2017 0.929517 -24.7236 0.203722 1.4122 0.0476123 -0.174077 -3.79205 -13.0134 -32.7282 -0.0 0.0 -0.0 7.06534 8.42997 -13.584 -32.8689 19.6038 -55.7311 0.588383 16.2498 -0.0840011 7.66773 -0.206377 0.956996 3.28836 -9.65999 -26.1054 0.0 0.0 0.0 15.0417 25.0623 -6.83201 -11.7049 0.302254 1.76776 33.4428 -6.98554 -4.35114 6.69965 -0.0 -0.0 -0.0 0.0 -0.0 28.3862 19.7671 -1.93821 -23.3573 -0.240686 -3.55152 26.6258 10.2188 3.67107 5.48819 -0.0 -0.0 0.0 0.0 0.0 
